<svg xmlns="http://www.w3.org/2000/svg" viewBox="0 0 64 64" role="img" aria-label="Buck Builds favicon">
  <rect width="64" height="64" rx="12" fill="#101417"/>
  <rect x="12" y="12" width="40" height="40" rx="8" fill="#ffffff"/>
  <path d="M25 20h8.8c5.1 0 8.1 2.7 8.1 6.7 0 2.6-1.3 4.7-3.6 5.7 2.9 0.9 4.7 3.2 4.7 6.1 0 4.6-3.5 7.5-9.2 7.5H25V20Zm8.5 10.4c2.2 0 3.4-1.1 3.4-2.9 0-1.7-1.2-2.7-3.4-2.7h-3.3v5.6h3.3Zm0.4 10.8c2.5 0 3.9-1.2 3.9-3.1 0-2-1.4-3.1-3.9-3.1h-3.7v6.2h3.7Z" fill="#256fb8"/>
</svg>
